<svg width="12" height="12" viewBox="0 0 12 12" fill="none" xmlns="http://www.w3.org/2000/svg">
<g clip-path="url(#clip0_1_1162)">
<path d="M6.38145 0.871754L1.25278 0.0924209C1.01478 0.0550876 0.772115 0.120421 0.590115 0.274421C0.408115 0.433088 0.300781 0.661754 0.300781 0.899754V10.7324C0.300781 10.9891 0.510781 11.1991 0.767448 11.1991H2.28411V8.74909C2.28411 8.29642 2.64811 7.93242 3.10078 7.93242H4.26745C4.72011 7.93242 5.08411 8.29642 5.08411 8.74909V11.1991H7.06745V1.67909C7.06745 1.27775 6.77811 0.937088 6.38145 0.871754ZM2.86745 6.88242H2.16745C1.97425 6.88242 1.81745 6.72562 1.81745 6.53242C1.81745 6.33922 1.97425 6.18242 2.16745 6.18242H2.86745C3.06065 6.18242 3.21745 6.33922 3.21745 6.53242C3.21745 6.72562 3.06065 6.88242 2.86745 6.88242ZM2.86745 5.48242H2.16745C1.97425 5.48242 1.81745 5.32562 1.81745 5.13242C1.81745 4.93922 1.97425 4.78242 2.16745 4.78242H2.86745C3.06065 4.78242 3.21745 4.93922 3.21745 5.13242C3.21745 5.32562 3.06065 5.48242 2.86745 5.48242ZM2.86745 4.08242H2.16745C1.97425 4.08242 1.81745 3.92562 1.81745 3.73242C1.81745 3.53922 1.97425 3.38242 2.16745 3.38242H2.86745C3.06065 3.38242 3.21745 3.53922 3.21745 3.73242C3.21745 3.92562 3.06065 4.08242 2.86745 4.08242ZM2.86745 2.68242H2.16745C1.97425 2.68242 1.81745 2.52562 1.81745 2.33242C1.81745 2.13922 1.97425 1.98242 2.16745 1.98242H2.86745C3.06065 1.98242 3.21745 2.13922 3.21745 2.33242C3.21745 2.52562 3.06065 2.68242 2.86745 2.68242ZM5.20078 6.88242H4.50078C4.30758 6.88242 4.15078 6.72562 4.15078 6.53242C4.15078 6.33922 4.30758 6.18242 4.50078 6.18242H5.20078C5.39398 6.18242 5.55078 6.33922 5.55078 6.53242C5.55078 6.72562 5.39398 6.88242 5.20078 6.88242ZM5.20078 5.48242H4.50078C4.30758 5.48242 4.15078 5.32562 4.15078 5.13242C4.15078 4.93922 4.30758 4.78242 4.50078 4.78242H5.20078C5.39398 4.78242 5.55078 4.93922 5.55078 5.13242C5.55078 5.32562 5.39398 5.48242 5.20078 5.48242ZM5.20078 4.08242H4.50078C4.30758 4.08242 4.15078 3.92562 4.15078 3.73242C4.15078 3.53922 4.30758 3.38242 4.50078 3.38242H5.20078C5.39398 3.38242 5.55078 3.53922 5.55078 3.73242C5.55078 3.92562 5.39398 4.08242 5.20078 4.08242ZM5.20078 2.68242H4.50078C4.30758 2.68242 4.15078 2.52562 4.15078 2.33242C4.15078 2.13922 4.30758 1.98242 4.50078 1.98242H5.20078C5.39398 1.98242 5.55078 2.13922 5.55078 2.33242C5.55078 2.52562 5.39398 2.68242 5.20078 2.68242Z" fill="black"/>
<path d="M10.8568 5.0592L7.53418 4.3634V11.1996H10.6842C11.1345 11.1996 11.5008 10.8333 11.5008 10.3829V5.8572C11.5008 5.47174 11.2381 5.14367 10.8568 5.0592ZM9.75085 9.7996H9.05085C8.85765 9.7996 8.70085 9.6428 8.70085 9.4496C8.70085 9.2564 8.85765 9.0996 9.05085 9.0996H9.75085C9.94405 9.0996 10.1008 9.2564 10.1008 9.4496C10.1008 9.6428 9.94405 9.7996 9.75085 9.7996ZM9.75085 8.3996H9.05085C8.85765 8.3996 8.70085 8.2428 8.70085 8.0496C8.70085 7.8564 8.85765 7.6996 9.05085 7.6996H9.75085C9.94405 7.6996 10.1008 7.8564 10.1008 8.0496C10.1008 8.2428 9.94405 8.3996 9.75085 8.3996ZM9.75085 6.9996H9.05085C8.85765 6.9996 8.70085 6.8428 8.70085 6.6496C8.70085 6.4564 8.85765 6.2996 9.05085 6.2996H9.75085C9.94405 6.2996 10.1008 6.4564 10.1008 6.6496C10.1008 6.8428 9.94405 6.9996 9.75085 6.9996Z" fill="black"/>
</g>
<defs>
<clipPath id="clip0_1_1162">
<rect width="11.2" height="11.2" fill="white" transform="translate(0.300781 0.00012207)"/>
</clipPath>
</defs>
</svg>
