<svg width="19" height="19" viewBox="0 0 19 19" fill="none" xmlns="http://www.w3.org/2000/svg">
<g clip-path="url(#clip0_1_1128)">
<path d="M15.0423 3.95703C15.6722 3.95703 16.2763 4.20725 16.7217 4.65265C17.1671 5.09805 17.4173 5.70214 17.4173 6.33203V12.6654C17.4173 13.2953 17.1671 13.8993 16.7217 14.3447C16.2763 14.7901 15.6722 15.0404 15.0423 15.0404H3.95898C3.3291 15.0404 2.725 14.7901 2.27961 14.3447C1.83421 13.8993 1.58398 13.2953 1.58398 12.6654V6.33203C1.58398 5.70214 1.83421 5.09805 2.27961 4.65265C2.725 4.20725 3.3291 3.95703 3.95898 3.95703H15.0423ZM9.50065 7.1237C8.89135 7.12375 8.30538 7.35797 7.86392 7.77791C7.42246 8.19786 7.15928 8.77141 7.12882 9.37995L7.12565 9.4987C7.12565 9.96843 7.26494 10.4276 7.52591 10.8182C7.78688 11.2087 8.1578 11.5132 8.59178 11.6929C9.02575 11.8727 9.50329 11.9197 9.96399 11.8281C10.4247 11.7364 10.8479 11.5102 11.18 11.1781C11.5122 10.8459 11.7384 10.4227 11.83 9.96204C11.9217 9.50133 11.8746 9.0238 11.6949 8.58982C11.5151 8.15585 11.2107 7.78493 10.8201 7.52396C10.4296 7.26299 9.97038 7.1237 9.50065 7.1237ZM14.2586 8.70703H14.2507C14.0407 8.70703 13.8393 8.79044 13.6909 8.9389C13.5424 9.08737 13.459 9.28873 13.459 9.4987C13.459 9.70866 13.5424 9.91002 13.6909 10.0585C13.8393 10.207 14.0407 10.2904 14.2507 10.2904H14.2586C14.4685 10.2904 14.6699 10.207 14.8184 10.0585C14.9668 9.91002 15.0502 9.70866 15.0502 9.4987C15.0502 9.28873 14.9668 9.08737 14.8184 8.9389C14.6699 8.79044 14.4685 8.70703 14.2586 8.70703ZM4.75857 8.70703H4.75065C4.64669 8.70755 4.54384 8.72854 4.44799 8.76881C4.35214 8.80907 4.26516 8.86782 4.19202 8.9417C4.11887 9.01558 4.06099 9.10315 4.02169 9.1994C3.98238 9.29565 3.96242 9.39869 3.96294 9.50266C3.96346 9.60662 3.98445 9.70946 4.02472 9.80531C4.06498 9.90116 4.12373 9.98814 4.19762 10.0613C4.2715 10.1344 4.35906 10.1923 4.45531 10.2316C4.55156 10.2709 4.6546 10.2909 4.75857 10.2904C4.96853 10.2904 5.16989 10.207 5.31836 10.0585C5.46683 9.91002 5.55023 9.70866 5.55023 9.4987C5.55023 9.28873 5.46683 9.08737 5.31836 8.9389C5.16989 8.79044 4.96853 8.70703 4.75857 8.70703Z" fill="#71717A"/>
</g>
<defs>
<clipPath id="clip0_1_1128">
<rect width="19" height="19" fill="white"/>
</clipPath>
</defs>
</svg>
