<svg width="24" height="19" viewBox="0 0 24 19" fill="none" xmlns="http://www.w3.org/2000/svg">
<path fill-rule="evenodd" clip-rule="evenodd" d="M4.22884 6.99844C3.98717 6.8599 3.68926 6.8599 3.44759 6.99844L1.19238 8.30052C0.950716 8.4401 0.801758 8.69844 0.801758 8.9776V11.5818C0.801758 11.8609 0.950716 12.1193 1.19238 12.2589L3.44759 13.5609C3.68926 13.6995 3.98717 13.6995 4.22884 13.5609L6.48405 12.2589C6.72572 12.1193 6.87467 11.8609 6.87467 11.5818V8.9776C6.87467 8.69844 6.72572 8.4401 6.48405 8.30052L4.22884 6.99844Z" fill="#71717A"/>
<path fill-rule="evenodd" clip-rule="evenodd" d="M15.6868 6.99844C15.4452 6.8599 15.1473 6.8599 14.9056 6.99844L12.6504 8.30052C12.4087 8.4401 12.2598 8.69844 12.2598 8.9776V11.5818C12.2598 11.8609 12.4087 12.1193 12.6504 12.2589L14.9056 13.5609C15.1473 13.6995 15.4452 13.6995 15.6868 13.5609L17.9421 12.2589C18.1837 12.1193 18.3327 11.8609 18.3327 11.5818V8.9776C18.3327 8.69844 18.1837 8.4401 17.9421 8.30052L15.6868 6.99844Z" fill="#71717A"/>
<path fill-rule="evenodd" clip-rule="evenodd" d="M9.61458 12.2094C9.37292 12.0708 9.075 12.0708 8.83333 12.2094L6.57813 13.5115C6.33646 13.651 6.1875 13.9094 6.1875 14.1885V16.7927C6.1875 17.0719 6.33646 17.3302 6.57813 17.4698L8.83333 18.7719C9.075 18.9104 9.37292 18.9104 9.61458 18.7719L11.8698 17.4698C12.1115 17.3302 12.2604 17.0719 12.2604 16.7927V14.1885C12.2604 13.9094 12.1115 13.651 11.8698 13.5115L9.61458 12.2094Z" fill="#71717A"/>
<path fill-rule="evenodd" clip-rule="evenodd" d="M6.30182 6.66641L11.5102 1.45807C11.8154 1.15391 11.8154 0.658073 11.5102 0.353906C11.206 0.0486979 10.7102 0.0486979 10.406 0.353906L5.19766 5.56224C4.89245 5.86641 4.89245 6.36224 5.19766 6.66641C5.50182 6.97161 5.99766 6.97161 6.30182 6.66641Z" fill="#71717A"/>
<path fill-rule="evenodd" clip-rule="evenodd" d="M17.7598 6.66641L22.9682 1.45807C23.2734 1.15391 23.2734 0.658073 22.9682 0.353906C22.664 0.0486979 22.1682 0.0486979 21.864 0.353906L16.6557 5.56224C16.3505 5.86641 16.3505 6.36224 16.6557 6.66641C16.9598 6.97161 17.4557 6.97161 17.7598 6.66641Z" fill="#71717A"/>
<path fill-rule="evenodd" clip-rule="evenodd" d="M4.21882 4.58438L6.30215 2.50104C6.60736 2.19688 6.60736 1.70104 6.30215 1.39688C5.99798 1.09167 5.50215 1.09167 5.19798 1.39688L3.11465 3.48021C2.80944 3.78438 2.80944 4.28021 3.11465 4.58438C3.41882 4.88958 3.91465 4.88958 4.21882 4.58438Z" fill="#71717A"/>
<path fill-rule="evenodd" clip-rule="evenodd" d="M15.6768 4.58438L17.7602 2.50104C18.0654 2.19688 18.0654 1.70104 17.7602 1.39688C17.456 1.09167 16.9602 1.09167 16.656 1.39688L14.5727 3.48021C14.2674 3.78438 14.2674 4.28021 14.5727 4.58438C14.8768 4.88958 15.3727 4.88958 15.6768 4.58438Z" fill="#71717A"/>
</svg>
