<svg width="18" height="25" viewBox="0 0 18 25" fill="none" xmlns="http://www.w3.org/2000/svg">
<path d="M11.478 0.426846L10.0825 9.75946H17.4765C17.6701 9.75946 17.8304 9.91972 17.8304 10.1134C17.8304 10.2002 17.7992 10.2803 17.7458 10.3404L7.15561 24.8301C7.03989 24.9882 6.81953 25.0215 6.66147 24.9058C6.55239 24.8279 6.50347 24.6966 6.52124 24.572L7.9168 15.2371H0.522851C0.327002 15.2371 0.168945 15.079 0.168945 14.8854C0.168945 14.7986 0.200097 14.7185 0.251318 14.6562L10.8437 0.166397C10.9594 0.0105864 11.1798 -0.0228121 11.3378 0.0907133C11.4469 0.170889 11.4958 0.302188 11.478 0.426846Z" fill="#71717A"/>
</svg>
